<svg width="41" height="40" viewBox="0 0 41 40" fill="none" xmlns="http://www.w3.org/2000/svg">
<g filter="url(#filter0_d_44_155)">
<path d="M7.02752 32H19.6422V18.2716H7.02752V32ZM35.3853 8.69136H28.0183C28.5229 8.39506 29.0275 8.19753 29.4312 7.90123C31.0459 6.81481 31.8532 5.33333 31.8532 3.95062C31.8532 2.76543 31.2477 1.77777 30.4404 1.08641C29.633 0.395053 28.5229 0 27.4128 0C26.2018 0 24.9908 0.395053 24.0826 1.08641C22.5688 2.07406 21.4587 3.55555 20.6514 5.1358C20.6514 5.23456 20.5505 5.33333 20.5505 5.33333C20.2477 4.74073 19.945 4.14814 19.5413 3.55555C18.8349 2.56789 18.0275 1.679 17.0183 1.08641C16.0092 0.493818 14.8991 0 13.6881 0C12.4771 0 11.367 0.49383 10.4587 1.28395C9.65137 2.07408 9.04587 3.16049 9.04587 4.34567C9.04587 5.03703 9.2477 5.82715 9.65137 6.51851C10.2569 7.4074 11.0642 8.09877 12.2752 8.69136H5.61467C4.70641 8.69136 4 9.38271 4 10.2716V16.0988H19.5413V8.69136H21.4587V16.0988H37V10.2716C37 9.38271 36.2936 8.69136 35.3853 8.69136ZM12.8807 6.41975C12.2752 6.02469 11.8716 5.62962 11.6697 5.33333C11.4679 4.93826 11.367 4.64197 11.367 4.34567C11.367 3.85184 11.5688 3.35802 12.0734 2.86419C12.4771 2.46913 13.0826 2.17284 13.6881 2.17284C14.3945 2.17284 15.1009 2.37036 15.7064 2.86419C16.7156 3.55555 17.7248 4.64196 18.3303 6.02468C18.633 6.71604 18.9358 7.4074 19.1376 8.09876C16.0092 7.80246 13.9908 7.11111 12.8807 6.41975ZM23.4771 4.8395C24.0826 4.04938 24.6881 3.35802 25.3945 2.96296C26.1009 2.46914 26.8073 2.27161 27.4128 2.27161C28.0183 2.27161 28.5229 2.46914 28.9266 2.76543C29.3303 3.06173 29.5321 3.45679 29.5321 3.95062C29.5321 4.44444 29.2294 5.23456 28.0183 6.02468C26.9083 6.8148 24.8899 7.7037 21.8624 8.29629C22.1651 7.1111 22.7706 5.82715 23.4771 4.8395ZM21.4587 32H34.0734V18.2716H21.4587V32Z" fill="#63D1BB"/>
</g>
<defs>
<filter id="filter0_d_44_155" x="0" y="0" width="41" height="40" filterUnits="userSpaceOnUse" color-interpolation-filters="sRGB">
<feFlood flood-opacity="0" result="BackgroundImageFix"/>
<feColorMatrix in="SourceAlpha" type="matrix" values="0 0 0 0 0 0 0 0 0 0 0 0 0 0 0 0 0 0 127 0" result="hardAlpha"/>
<feOffset dy="4"/>
<feGaussianBlur stdDeviation="2"/>
<feComposite in2="hardAlpha" operator="out"/>
<feColorMatrix type="matrix" values="0 0 0 0 0 0 0 0 0 0 0 0 0 0 0 0 0 0 0.25 0"/>
<feBlend mode="normal" in2="BackgroundImageFix" result="effect1_dropShadow_44_155"/>
<feBlend mode="normal" in="SourceGraphic" in2="effect1_dropShadow_44_155" result="shape"/>
</filter>
</defs>
</svg>
