<svg width="43" height="42" viewBox="0 0 43 42" fill="none" xmlns="http://www.w3.org/2000/svg">
<g filter="url(#filter0_d_44_133)">
<path d="M4.30556 13.9528C3.89815 16.0303 3.89815 18.1079 4.30556 20.1854L8.48152 17.0196L4.30556 13.9528Z" fill="#63D1BB"/>
<path d="M28.852 1.586C23.9631 -0.590493 18.2594 -0.590493 13.2686 1.98172L20.9075 7.52187L28.852 1.586Z" fill="#63D1BB"/>
<path d="M38.528 13.062L33.6391 16.7225L38.6299 20.3829C39.1392 18.0086 39.1392 15.4364 38.528 13.062Z" fill="#63D1BB"/>
<path d="M13.3705 32.057C18.2594 34.5303 24.2687 34.7281 29.3613 32.1559L21.1113 26.1211L13.3705 32.057Z" fill="#63D1BB"/>
<path d="M12.0464 14.2488L5.73152 9.698C5.42596 10.3905 5.1204 11.083 4.9167 11.7756L10.3149 15.7328L12.0464 14.2488Z" fill="#63D1BB"/>
<path d="M22.9446 24.8349L31.3983 30.9686C31.7039 30.7707 32.0095 30.5729 32.2132 30.375C32.5187 30.1772 32.8243 29.8804 33.1298 29.5836L24.6761 23.4498L22.9446 24.8349Z" fill="#63D1BB"/>
<path d="M15.6112 11.5781L8.07412 6.13684C7.56486 6.6315 7.15745 7.22509 6.75003 7.81867L13.7779 12.9631L15.6112 11.5781Z" fill="#63D1BB"/>
<path d="M26.5094 22.1635L34.7595 28.1983C35.2688 27.7036 35.6762 27.11 36.0836 26.5165L28.2409 20.7784L26.5094 22.1635Z" fill="#63D1BB"/>
<path d="M19.176 8.90696L11.3334 3.16895C11.1297 3.26788 10.926 3.46574 10.7223 3.56467C10.3149 3.86146 9.90746 4.15826 9.6019 4.55398L17.4446 10.1931L19.176 8.90696Z" fill="#63D1BB"/>
<path d="M30.0743 19.3936L37.204 24.538C37.5095 23.8455 37.8151 23.2519 38.1206 22.5594L31.9076 18.0085L30.0743 19.3936Z" fill="#63D1BB"/>
<path d="M30.8891 2.67419L4.9167 22.3615C5.1204 23.054 5.42596 23.7466 5.73152 24.4391L32.7225 3.9603C32.2132 3.46564 31.6021 3.06992 30.8891 2.67419Z" fill="#63D1BB"/>
<path d="M35.2688 6.53234C34.9632 6.13661 34.6576 5.74089 34.3521 5.44409L6.85186 26.2197C7.05557 26.7143 7.36113 27.11 7.66669 27.4068C7.76854 27.6047 7.97224 27.8026 8.0741 27.9015L35.778 7.12592C35.5743 6.92806 35.4725 6.7302 35.2688 6.53234Z" fill="#63D1BB"/>
<path d="M36.8984 8.90674L9.70373 29.4844C10.213 29.9791 10.8241 30.4738 11.4352 30.8695L37.9169 10.8854C37.6114 10.1928 37.3058 9.50033 36.8984 8.90674Z" fill="#63D1BB"/>
</g>
<defs>
<filter id="filter0_d_44_133" x="0" y="0" width="43" height="42.0001" filterUnits="userSpaceOnUse" color-interpolation-filters="sRGB">
<feFlood flood-opacity="0" result="BackgroundImageFix"/>
<feColorMatrix in="SourceAlpha" type="matrix" values="0 0 0 0 0 0 0 0 0 0 0 0 0 0 0 0 0 0 127 0" result="hardAlpha"/>
<feOffset dy="4"/>
<feGaussianBlur stdDeviation="2"/>
<feComposite in2="hardAlpha" operator="out"/>
<feColorMatrix type="matrix" values="0 0 0 0 0 0 0 0 0 0 0 0 0 0 0 0 0 0 0.25 0"/>
<feBlend mode="normal" in2="BackgroundImageFix" result="effect1_dropShadow_44_133"/>
<feBlend mode="normal" in="SourceGraphic" in2="effect1_dropShadow_44_133" result="shape"/>
</filter>
</defs>
</svg>
