<svg width="41" height="46" viewBox="0 0 41 46" fill="none" xmlns="http://www.w3.org/2000/svg">
<g filter="url(#filter0_d_44_154)">
<path d="M20.5 38C29.575 38 37 30.6452 37 21.6559C27.925 21.6559 20.5 28.9086 20.5 38ZM8.74375 16.6505C8.74375 19.2043 10.8063 21.1452 13.2812 21.1452C14.2094 21.1452 15.1375 20.8387 15.8594 20.328V20.6344C15.8594 23.1882 17.9219 25.129 20.3969 25.129C22.975 25.129 24.9344 23.086 24.9344 20.6344V20.328C25.6562 20.8387 26.5844 21.1452 27.5125 21.1452C30.0906 21.1452 32.05 19.1021 32.05 16.6505C32.05 14.8118 31.0188 13.2796 29.4719 12.5645C31.0188 11.8495 32.05 10.3172 32.05 8.47849C32.05 5.92473 29.9875 3.98387 27.5125 3.98387C26.5844 3.98387 25.6562 4.29032 24.9344 4.80107V4.49462C24.9344 1.94086 22.8719 0 20.3969 0C17.8187 0 15.8594 2.04301 15.8594 4.49462V4.80107C15.1375 4.29032 14.2094 3.98387 13.2812 3.98387C10.7031 3.98387 8.74375 6.02688 8.74375 8.47849C8.74375 10.3172 9.775 11.8495 11.3219 12.5645C9.87813 13.2796 8.74375 14.8118 8.74375 16.6505ZM20.5 7.96774C23.0781 7.96774 25.0375 10.0108 25.0375 12.4624C25.0375 15.0161 22.975 16.957 20.5 16.957C17.9219 16.957 15.9625 14.914 15.9625 12.4624C15.9625 10.0108 17.9219 7.96774 20.5 7.96774ZM4 21.6559C4 30.6452 11.425 38 20.5 38C20.5 28.9086 13.075 21.6559 4 21.6559Z" fill="#63D1BB"/>
</g>
<defs>
<filter id="filter0_d_44_154" x="0" y="0" width="41" height="46" filterUnits="userSpaceOnUse" color-interpolation-filters="sRGB">
<feFlood flood-opacity="0" result="BackgroundImageFix"/>
<feColorMatrix in="SourceAlpha" type="matrix" values="0 0 0 0 0 0 0 0 0 0 0 0 0 0 0 0 0 0 127 0" result="hardAlpha"/>
<feOffset dy="4"/>
<feGaussianBlur stdDeviation="2"/>
<feComposite in2="hardAlpha" operator="out"/>
<feColorMatrix type="matrix" values="0 0 0 0 0 0 0 0 0 0 0 0 0 0 0 0 0 0 0.25 0"/>
<feBlend mode="normal" in2="BackgroundImageFix" result="effect1_dropShadow_44_154"/>
<feBlend mode="normal" in="SourceGraphic" in2="effect1_dropShadow_44_154" result="shape"/>
</filter>
</defs>
</svg>
