<svg width="55" height="35" viewBox="0 0 55 35" fill="none" xmlns="http://www.w3.org/2000/svg">
<g filter="url(#filter0_d_44_148)">
<path d="M47.0665 0H7.93347C5.71459 0 4 1.68132 4 3.85714V23.1429C4 25.3187 5.71459 27 7.93347 27H47.0665C49.2854 27 51 25.3187 51 23.1429V3.85714C51 1.78022 49.1845 0 47.0665 0ZM7.02575 24.7253V2.76923H47.5708V24.7253H7.02575Z" fill="#63D1BB"/>
<path d="M10.9593 20.8683H43.6374V6.62659H10.9593V20.8683ZM27.5 8.50571C30.4249 8.50571 32.8455 10.8793 32.8455 13.7475C32.8455 16.6156 30.4249 18.9892 27.5 18.9892C24.5751 18.9892 22.1545 16.6156 22.1545 13.7475C22.1545 10.7804 24.5751 8.50571 27.5 8.50571Z" fill="#63D1BB"/>
</g>
<defs>
<filter id="filter0_d_44_148" x="0" y="0" width="55" height="35" filterUnits="userSpaceOnUse" color-interpolation-filters="sRGB">
<feFlood flood-opacity="0" result="BackgroundImageFix"/>
<feColorMatrix in="SourceAlpha" type="matrix" values="0 0 0 0 0 0 0 0 0 0 0 0 0 0 0 0 0 0 127 0" result="hardAlpha"/>
<feOffset dy="4"/>
<feGaussianBlur stdDeviation="2"/>
<feComposite in2="hardAlpha" operator="out"/>
<feColorMatrix type="matrix" values="0 0 0 0 0 0 0 0 0 0 0 0 0 0 0 0 0 0 0.25 0"/>
<feBlend mode="normal" in2="BackgroundImageFix" result="effect1_dropShadow_44_148"/>
<feBlend mode="normal" in="SourceGraphic" in2="effect1_dropShadow_44_148" result="shape"/>
</filter>
</defs>
</svg>
