<svg width="63" height="31" viewBox="0 0 63 31" fill="none" xmlns="http://www.w3.org/2000/svg">
<g filter="url(#filter0_d_44_151)">
<path d="M44.9467 5.75002C41.307 4.75864 37.0607 4.06466 32.41 4.06466C29.478 4.06466 26.8493 4.26294 24.625 4.65949L17.75 0H4.10114L9.9651 6.14656H18.4577C13.807 7.73277 11.5827 9.61639 11.5827 9.61639V13.3836C11.5827 13.3836 13.9081 15.2672 18.5588 16.8534H9.86396L4 23H17.6489L24.5239 18.3405C26.8492 18.7371 29.3768 18.9354 32.3088 18.9354C36.8584 18.9354 41.1048 18.2414 44.8456 17.25C43.6324 15.4655 42.9246 13.5819 42.9246 11.4009C43.0257 9.4181 43.8345 7.5345 44.9467 5.75002Z" fill="#63D1BB"/>
<path d="M48.4853 6.74121C47.1709 8.32742 46.4632 9.91361 46.4632 11.4998C46.4632 13.086 47.1709 14.6722 48.4853 16.2585C54.9559 14.0774 59 11.4998 59 11.4998C59 11.4998 54.9559 8.92224 48.4853 6.74121Z" fill="#63D1BB"/>
</g>
<defs>
<filter id="filter0_d_44_151" x="0" y="0" width="63" height="31" filterUnits="userSpaceOnUse" color-interpolation-filters="sRGB">
<feFlood flood-opacity="0" result="BackgroundImageFix"/>
<feColorMatrix in="SourceAlpha" type="matrix" values="0 0 0 0 0 0 0 0 0 0 0 0 0 0 0 0 0 0 127 0" result="hardAlpha"/>
<feOffset dy="4"/>
<feGaussianBlur stdDeviation="2"/>
<feComposite in2="hardAlpha" operator="out"/>
<feColorMatrix type="matrix" values="0 0 0 0 0 0 0 0 0 0 0 0 0 0 0 0 0 0 0.25 0"/>
<feBlend mode="normal" in2="BackgroundImageFix" result="effect1_dropShadow_44_151"/>
<feBlend mode="normal" in="SourceGraphic" in2="effect1_dropShadow_44_151" result="shape"/>
</filter>
</defs>
</svg>
