<svg width="28" height="34" viewBox="0 0 28 34" fill="none" xmlns="http://www.w3.org/2000/svg">
<path d="M14.6465 -0.0500488H14.5461L0.992188 1.34995V26.05L14.5461 34.0499L27.9997 26.05V1.34995L14.6465 -0.0500488ZM26.0921 12.05L14.5461 5.24995V5.14995H14.4457L14.3453 5.04995V5.14995L2.89978 12.05V3.04995L14.4457 1.84995L26.0921 3.04995V12.05ZM14.4457 6.74995L25.9917 13.45L21.4737 16.05L14.3453 11.85V13.25L20.2689 16.75L19.3653 17.25L14.3453 14.25V15.65L18.1605 17.95L17.3573 18.45L14.3453 16.65V18.05L16.2529 19.15L14.4457 20.25L3.00018 13.55L14.4457 6.74995ZM2.89978 15.05L14.3453 21.85V22.85L6.41376 18.15V19.55L14.4457 24.35V25.45L6.41376 20.75V22.15L14.4457 26.95L22.5781 22.05V16.85L25.9917 14.85V24.85L14.4457 31.75L2.89978 24.95V15.05Z" fill="#63D1BB"/>
</svg>
