<svg width="1250" height="34" viewBox="0 0 1250 34" fill="none" xmlns="http://www.w3.org/2000/svg"><path d="M1218.8 0c-15.6 0-15.6 14-31.2 14-15.5 0-15.6-14-31.2-14-15.5 0-15.6 14-31.2 14S1109.6 0 1094 0c-15.6 0-15.6 14-31.2 14s-15.6-14-31.2-14-15.6 14-31.2 14c-15.5 0-16-14-31.5-14-15.6 0-15.6 14-31.2 14-15.5 0-15.8-14-31.3-14-15.6 0-15.6 14-31.2 14S859.5 0 843.8 0c-15.6 0-15.6 14-31.2 14S797 0 781.4 0C766 0 765.7 14 750 14S734.3 0 718.8 0c-15.6 0-15.6 14-31.2 14S672 0 656.3 0c-15.6 0-15.6 14-31.2 14S609.5 0 594 0s-15.6 14-31.2 14-15.6-14-31.2-14-15.6 14-31.3 14C484.6 14 484.6 0 469 0c-15.6 0-15.6 14-31.3 14C422 14 422 0 406.3 0c-15.6 0-15.6 14-31.3 14-15.7 0-15.7-14-31.3-14C328 0 328 14 312.4 14 296.7 14 296.7 0 281 0c-15.7 0-15.7 14-31.2 14-15.7 0-15.7-14-31.3-14-15.7 0-15.7 14-31.3 14-15.7 0-15.7-14-31.3-14-15.7 0-15.7 14-31.3 14C109 14 109 0 93.4 0 78.2 0 78.2 14 62.5 14S46.8 0 31.3 0 15.7 14 0 14v20h1250V14c-15.7 0-15.7-14-31.2-14Z" fill="#fff"/></svg>