<svg width="768" height="17" viewBox="0 0 768 17" fill="none" xmlns="http://www.w3.org/2000/svg"><path d="M770 17c-6 0-9.2-3.4-11.7-6.1-2.3-2.5-4-4.2-7.6-4.2-3.6 0-5.2 1.7-7.5 4.2-2.5 2.7-5.7 6.1-11.7 6.1-6 0-9.2-3.4-11.8-6.1-2.3-2.5-4-4.2-7.5-4.2-3.6 0-5.2 1.7-7.5 4.2-2.6 2.7-5.7 6.1-11.8 6.1-6 0-9.2-3.4-11.7-6.1-2.3-2.5-4-4.2-7.5-4.2-3.7 0-5.3 1.7-7.6 4.2-2.5 2.7-5.7 6.1-11.7 6.1-6 0-9.2-3.4-11.7-6.1-2.3-2.5-4-4.2-7.6-4.2-3.6 0-5.2 1.7-7.5 4.2-2.8 2.7-6 6.1-12 6.1s-9.2-3.4-11.7-6.1c-2.3-2.5-4-4.2-7.6-4.2-3.6 0-5.2 1.7-7.5 4.2-2.5 2.7-5.7 6.1-11.7 6.1-6 0-9.2-3.4-11.8-6.1-2.3-2.5-4-4.2-7.5-4.2-3.6 0-5.2 1.7-7.5 4.2-2.7 2.7-5.9 6.1-11.9 6.1s-9.2-3.4-11.7-6.1c-2.3-2.5-4-4.2-7.6-4.2-3.6 0-5.2 1.7-7.5 4.2-2.5 2.7-5.7 6.1-11.7 6.1-6 0-9.2-3.4-11.8-6.1-2.3-2.5-4-4.2-7.5-4.2-3.6 0-5.2 1.7-7.5 4.2-2.6 2.7-5.9 6.1-11.9 6.1s-9.2-3.4-11.7-6.1c-2.3-2.5-4-4.2-7.6-4.2-3.6 0-5.2 1.7-7.5 4.2-2.5 2.7-5.7 6.1-11.7 6.1-6 0-9.2-3.4-11.8-6.1-2.3-2.5-4-4.2-7.5-4.2-3.6 0-5.2 1.7-7.5 4.2-2.6 2.7-5.7 6.1-11.8 6.1-6 0-9.2-3.4-11.7-6.1-2.3-2.5-4-4.2-7.5-4.2-3.6 0-5.3 1.7-7.6 4.2-2.5 2.7-5.7 6.1-11.7 6.1-6 0-9.2-3.4-11.7-6.1-2.3-2.5-4-4.2-7.6-4.2-3.6 0-5.2 1.7-7.5 4.2-2.5 2.7-5.7 6.1-11.7 6.1-6 0-9.2-3.4-11.8-6.1-2.3-2.5-4-4.2-7.5-4.2-3.6 0-5.2 1.7-7.5 4.2-2.6 2.7-5.7 6.1-11.8 6.1-6 0-9.2-3.4-11.7-6.1-2.3-2.5-4-4.2-7.5-4.2-3.7 0-5.3 1.7-7.5 4.2-2.6 2.7-5.8 6.1-11.8 6.1-6 0-9.2-3.4-11.7-6.1-2.3-2.5-4-4.2-7.6-4.2-3.5 0-5.2 1.7-7.5 4.2-2.5 2.7-5.7 6.1-11.7 6.1-6 0-9.2-3.4-11.8-6.1-2.3-2.5-4-4.2-7.5-4.2-3.6 0-5.2 1.7-7.5 4.2-2.6 2.7-5.7 6.1-11.8 6.1-6 0-9.2-3.4-11.7-6.1-2.3-2.5-4-4.2-7.5-4.2-3.7 0-5.3 1.7-7.5 4.2-2.6 2.7-5.8 6.1-11.8 6.1-6 0-9.2-3.4-11.7-6.1-2.3-2.5-4-4.2-7.6-4.2-3.6 0-5.2 1.7-7.5 4.2-3.1 2.7-6.4 6.1-12.4 6.1s-9.2-3.4-11.7-6.1c-2.3-2.5-4-4.2-7.6-4.2-3.6 0-5.2 1.7-7.5 4.2C46 13.6 42.7 17 36.7 17c-6 0-9.2-3.4-11.8-6.1-2.3-2.5-4-4.2-7.6-4.2-3.6 0-5.2 1.7-7.5 4.2C7.2 13.6 4 17-2 17v-6.7c3.6 0 5.2-1.7 7.5-4.2C8.1 3.4 11.2 0 17.3 0c6 0 9.2 3.4 11.8 6.1 2.3 2.5 4 4.2 7.5 4.2 3.6 0 5.2-1.7 7.5-4.2C46.7 3.4 50 0 56 0c6 0 9.2 3.4 11.8 6.1 2.3 2.5 4 4.2 7.5 4.2 3.6 0 5.2-1.7 7.5-4.2C85.3 3.4 88.4 0 94.5 0c6 0 9.2 3.4 11.7 6.1 2.3 2.5 4 4.2 7.5 4.2 3.7 0 5.3-1.7 7.6-4.2C123.8 3.4 127 0 133 0c6 0 9.2 3.4 11.7 6.1 2.3 2.5 4 4.2 7.6 4.2 3.6 0 5.2-1.7 7.5-4.2 2.5-2.7 5.7-6.1 11.7-6.1 6 0 9.2 3.4 11.8 6.1 2.3 2.5 4 4.2 7.5 4.2 3.6 0 5.2-1.7 7.5-4.2C201 3.4 204 0 210.1 0c6 0 9.2 3.4 11.7 6.1 2.3 2.5 4 4.2 7.5 4.2 3.7 0 5.3-1.7 7.5-4.2 2.6-2.7 5.8-6.1 11.8-6.1 6 0 9.2 3.4 11.7 6.1 2.3 2.5 4 4.2 7.6 4.2 3.5 0 5.2-1.7 7.5-4.2C277.9 3.4 281 0 287 0c6 0 9.2 3.4 11.8 6.1 2.3 2.5 4 4.2 7.5 4.2 3.6 0 5.2-1.7 7.5-4.2 2.6-2.7 5.7-6.1 11.8-6.1 6 0 9.2 3.4 11.7 6.1 2.3 2.5 4 4.2 7.5 4.2 3.7 0 5.3-1.7 7.5-4.2C355 3.4 358.2 0 364.2 0c6 0 9.2 3.4 11.7 6.1 2.3 2.5 4 4.2 7.6 4.2 3.6 0 5.2-1.7 7.5-4.2 2.5-2.7 5.7-6.1 11.7-6.1 6 0 9.2 3.4 11.8 6.1 2.3 2.5 4 4.2 7.5 4.2 3.6 0 5.2-1.7 7.5-4.2 2.6-2.7 5.7-6.1 11.8-6.1 6 0 9.2 3.4 11.7 6.1 2.3 2.5 4 4.2 7.5 4.2 3.7 0 5.3-1.7 7.5-4.2 2.6-2.7 5.8-6.1 11.8-6.1 6 0 9.2 3.4 11.7 6.1 2.3 2.5 4 4.2 7.6 4.2 3.6 0 5.2-1.7 7.5-4.2C509 3.4 512.3 0 518.3 0c6 0 9.2 3.4 11.8 6.1 2.3 2.5 4 4.2 7.5 4.2 3.6 0 5.2-1.7 7.5-4.2 3.4-2.7 6.5-6.1 12.6-6.1 6 0 9.2 3.4 11.8 6.1 2.3 2.5 4 4.2 7.5 4.2 3.6 0 5.2-1.7 7.5-4.2 2.6-2.7 5.7-6.1 11.8-6.1 6 0 9.2 3.4 11.7 6.1 2.3 2.5 4 4.2 7.5 4.2 3.6 0 5.3-1.7 7.6-4.2 2.6-2.7 5.7-6.1 11.8-6.1 6.1 0 9.2 3.4 11.8 6.1 2.3 2.5 4 4.2 7.5 4.2 3.6 0 5.2-1.7 7.5-4.2 2.6-2.7 5.7-6.1 11.8-6.1 6 0 9.2 3.4 11.7 6.1 2.3 2.5 4 4.2 7.5 4.2 3.7 0 5.3-1.7 7.6-4.2C702.8 3.4 706 0 712 0c6 0 9.2 3.4 11.7 6.1 2.3 2.5 4 4.2 7.6 4.2 3.5 0 5.2-1.7 7.5-4.2 2.5-2.7 5.7-6.1 11.7-6.1 6 0 9.2 3.4 11.8 6.1 2.3 2.5 4 4.2 7.5 4.2V17h.2Z" fill="#F1F1F1"/></svg>