<svg width="101" height="77" viewBox="0 0 101 77" fill="none" xmlns="http://www.w3.org/2000/svg"><path d="M97.3 18.1s-1-7-3.8-10c-3.6-4-7.8-4.2-9.6-4.4-13.3-1-33.4-1-33.4-1h-.1s-20 0-33.4 1C15 4 11 4 7.4 8c-2.8 3.1-3.8 10.1-3.8 10.1s-.9 8.3-.9 16.5v7.7c0 8.2 1 16.5 1 16.5s.8 7 3.7 10c3.6 4 8.5 4 10.6 4.4 7.6.8 32.5 1 32.5 1s20 0 33.4-1c2-.2 6-.3 9.6-4.3 2.8-3.1 3.8-10.1 3.8-10.1s.9-8.3.9-16.5v-7.7c0-8.2-1-16.5-1-16.5Z" fill="#63D1BB"/><path d="M50.4 77c-1 0-25.1-.3-32.7-1h-.2l-1.1-.2a16 16 0 0 1-10.9-5C2.1 67.2 1.1 60 1 59.2c0-.3-1-8.6-1-16.8v-7.7c0-8.3.9-16.5.9-16.8.1-.9 1.2-8 4.5-11.7 4-4.4 8.6-4.9 10.8-5.1l.5-.1c13.4-1 33.5-1 33.7-1h.1c.2 0 20.3 0 33.6 1h.1l.5.1c2.2.2 6.8.7 10.8 5.1 3.4 3.6 4.4 10.8 4.5 11.6 0 .3 1 8.6 1 16.9v7.7c0 8.3-.9 16.5-1 16.8-.1.9-1.2 8-4.5 11.7-4 4.4-8.6 4.9-10.8 5.1l-.5.1c-13.4.9-33.6.9-33.8.9Zm-32-6.4c7.5.7 31.3 1 32.1 1 .7 0 20.2 0 33.1-1l.6-.1c1.8-.2 4.7-.5 7.3-3.3 1.8-2 2.9-7 3-8.6.2-.5 1-8.5 1-16.2v-7.7c0-7.8-1-15.7-1-16.2-.3-2.4-1.4-6.8-3.1-8.5-2.6-2.9-5.5-3-7.3-3.3h-.6c-13.1-1-32.9-1-33.1-1h-.1c-.2 0-20 0-33.1 1h-.6c-1.8.2-4.7.5-7.3 3.3-1.8 2-2.9 7-3 8.6-.2.6-1 8.5-1 16.2v7.7c0 7.7 1 15.7 1 16.2.2 2.4 1.3 6.8 3 8.5 2.3 2.6 5.4 3 7.6 3.3h1.5Z" fill="#fff"/><path d="M38.5 20.6v35.7l29.9-17.8-30-18Z" fill="#fff"/></svg>